<svg xmlns="http://www.w3.org/2000/svg" viewBox="0 0 734.93 803.84"><path d="M234.26 581.91c-24.4 74.5-48.53 148.2-72.67 221.93H0l130.37-382.79h165.09l72 140.08c24.75-48.12 48.44-94.17 72.11-140.16h165q65.09 191.09 130.39 382.81H573.33l-72.68-221.87c-26.88 43.91-53.53 86.89-79.5 130.28-6.06 10.12-13.93 14.57-25.18 14.54q-28-.08-56 0c-11.27 0-19.08-4.49-25.19-14.55-26.3-43.39-53.29-86.37-80.52-130.27z" fill="#00ab8d"/><path d="M441.71 396.93l-74.23-235.39c-25.66 81.28-49.94 158.24-74.22 235.34H136.97q28.69-89.13 57.29-177.9c19.56-60.75 39.29-121.44 58.7-182.27 7.61-23.83 24-36.28 48.44-36.48 46.47-.39 93-.4 139.43 1 19.7.58 33.54 12.8 39.65 31.64q58.68 181 116.84 362.11a15.52 15.52 0 01.36 2z" fill="#00796a"/></svg>