<svg xmlns="http://www.w3.org/2000/svg" viewBox="0 0 613.18 133.93"><defs><style>.a{fill:#626365}</style></defs><path class="a" d="M191.68 38.55a20.36 20.36 0 01-4.9-.54 13.42 13.42 0 01-3.84-1.54 10.66 10.66 0 01-2.83-2.46 12.13 12.13 0 01-1.86-3.28 14.18 14.18 0 01-.82-3.25 29.87 29.87 0 01-.25-4V2.93h6.36v20a15.39 15.39 0 00.88 5.81 6.55 6.55 0 002.87 3.36 10.17 10.17 0 008.92 0 6.61 6.61 0 002.88-3.36 15.39 15.39 0 00.88-5.81v-20h6.35v20.62a30 30 0 01-.24 4 14.72 14.72 0 01-.82 3.25 11.93 11.93 0 01-1.88 3.28 10.73 10.73 0 01-2.88 2.46 13.93 13.93 0 01-3.9 1.54 20.71 20.71 0 01-4.92.47zM218.68 16.07h.11a9.14 9.14 0 011.37-1.54 9 9 0 011.89-1.34 11.51 11.51 0 012.35-.93 10.47 10.47 0 012.73-.35 11.07 11.07 0 012.66.31 8.05 8.05 0 012.35 1 7.31 7.31 0 011.88 1.73 8.24 8.24 0 011.28 2.53 8.57 8.57 0 01.35 1.76c.06.64.09 1.38.09 2.21v16.48h-6.06v-15.5a17.35 17.35 0 00-.08-1.75 4.93 4.93 0 00-.29-1.28 3.18 3.18 0 00-1.41-1.73 4.67 4.67 0 00-2.29-.52 7.36 7.36 0 00-3.44.85 8.7 8.7 0 00-2.91 2.47v17.46h-6.15V12.54h5.08zM241.68 0h6.46v6.73h-6.46zm.16 12.54h6.14v25.39h-6.14zM276.92 12.54l-9.72 25.39h-6.09l-9.75-25.36h6.48l3.5 9.68c1 2.72 1.92 5.44 2.75 8.17h.1q1.1-3.54 2.7-8l3.5-9.84zM292.06 33.55a20.55 20.55 0 003.74-.36 30.32 30.32 0 003.94-1.05v5a18.86 18.86 0 01-3.66 1 27.4 27.4 0 01-5.1.47 18.26 18.26 0 01-5.07-.69 10.94 10.94 0 01-4.19-2.24 10.79 10.79 0 01-2.84-4 15.19 15.19 0 01-1.05-6 16.94 16.94 0 011-6.05 12.42 12.42 0 012.64-4.29 11 11 0 013.8-2.55 11.82 11.82 0 014.41-.86 12.68 12.68 0 014.39.73 9 9 0 013.48 2.3 11 11 0 012.28 4.05 18.87 18.87 0 01.81 5.85c0 .87 0 1.61-.07 2.22h-16.46a7.6 7.6 0 00.77 3 5.77 5.77 0 001.7 2 7 7 0 002.45 1.13 12.72 12.72 0 003.03.34zm-2.46-16.8a4.7 4.7 0 00-2.07.43 4.81 4.81 0 00-1.57 1.18 5.86 5.86 0 00-1 1.74 8.55 8.55 0 00-.52 2.12h9.88a7.29 7.29 0 00-.3-2.12 5.28 5.28 0 00-.88-1.74 4.17 4.17 0 00-1.45-1.18 4.51 4.51 0 00-2.09-.43zM320.68 17.46h-.52a13.34 13.34 0 00-5 .85 6.88 6.88 0 00-3.3 2.6v17h-6.15V12.54h5.09l.57 3.53h.1a8 8 0 013-3.05 9 9 0 014.58-1.11 10.74 10.74 0 011.61.1zM335.58 30.54a2 2 0 00-.45-1.33 3.75 3.75 0 00-1.21-.88 10.74 10.74 0 00-1.72-.61c-.65-.18-1.33-.35-2-.53a23.09 23.09 0 01-2.59-.85 7.63 7.63 0 01-2.19-1.27 5.58 5.58 0 01-1.5-2 6.76 6.76 0 01-.56-2.92 8.39 8.39 0 01.75-3.68 7.31 7.31 0 012-2.58 8.61 8.61 0 013-1.51 12.36 12.36 0 013.57-.45 23.82 23.82 0 014.33.38 22.71 22.71 0 013.65 1v5.05q-.86-.28-1.8-.54a29.738 29.738 0 00-3.85-.73 14.74 14.74 0 00-1.82-.12 7 7 0 00-1.84.21 3.49 3.49 0 00-1.21.57 2 2 0 00-.68.81 2.23 2.23 0 00-.21 1 2.13 2.13 0 00.43 1.37 3.16 3.16 0 001.26.88 11.05 11.05 0 001.68.57l1.71.43c.86.21 1.73.46 2.59.76a8.18 8.18 0 012.34 1.24 6.08 6.08 0 011.69 2.07 6.85 6.85 0 01.66 3.23 8.15 8.15 0 01-.8 3.74 7.29 7.29 0 01-2.24 2.66 9.77 9.77 0 01-3.45 1.57 17.94 17.94 0 01-4.42.51 22.29 22.29 0 01-4.29-.38 14.28 14.28 0 01-3.15-.95v-5a19.75 19.75 0 003.73 1 20.78 20.78 0 003.19.28 13 13 0 002.13-.17 6.29 6.29 0 001.7-.54 3 3 0 001.12-.93 2.19 2.19 0 00.45-1.36zM346.36 0h6.46v6.73h-6.46zm.16 12.54h6.16v25.39h-6.14zM357.59 25.73a17.84 17.84 0 01.91-5.93 12.86 12.86 0 012.47-4.37 10.13 10.13 0 013.59-2.64 10.38 10.38 0 014.2-.88 9.86 9.86 0 011.92.18 10.27 10.27 0 011.71.5 10.39 10.39 0 011.5.71 14.49 14.49 0 011.3.81v-1.48V0h6.14v30.36q0 2.51.06 4.32c0 1.2.07 2.27.1 3.22h-5.55l-.26-2.7h-.1a9.39 9.39 0 01-1.31 1.28 9.14 9.14 0 01-1.68 1.09 9.53 9.53 0 01-2 .72 10.55 10.55 0 01-2.39.26 10.67 10.67 0 01-3.93-.73 9.3 9.3 0 01-3.37-2.27 11 11 0 01-2.39-4 17.28 17.28 0 01-.92-5.82zm12.1 7.87a6.13 6.13 0 001.73-.23 8 8 0 001.54-.63 7.72 7.72 0 001.28-.86 8.42 8.42 0 001-.92V18.93a10.66 10.66 0 00-2.44-1.48 7.1 7.1 0 00-2.85-.59 5.79 5.79 0 00-2 .4 5 5 0 00-1.92 1.33 7.59 7.59 0 00-1.45 2.62 13.18 13.18 0 00-.58 4.27 10.52 10.52 0 001.46 6 4.92 4.92 0 004.22 2.12zM402.29 35.2h-.1a12.87 12.87 0 01-1.24 1.13 12.53 12.53 0 01-1.66 1.08 9.92 9.92 0 01-2.08.83 9.21 9.21 0 01-2.46.31 9.84 9.84 0 01-3.34-.56 7.65 7.65 0 01-2.67-1.62 7.47 7.47 0 01-1.75-2.57 8.42 8.42 0 01-.64-3.36 8.84 8.84 0 01.74-3.67 7.78 7.78 0 012.06-2.74 9.1 9.1 0 013.16-1.72 13.43 13.43 0 014.07-.59 20 20 0 013 .21 21 21 0 012.41.5v-1a5 5 0 00-.3-1.72 3.87 3.87 0 00-1-1.46 4.6 4.6 0 00-1.72-1 7.82 7.82 0 00-2.59-.38 16.86 16.86 0 00-3.73.42 30.06 30.06 0 00-4.05 1.25V13.7a20.08 20.08 0 014-1.28 22.92 22.92 0 014.46-.47 15.51 15.51 0 014.81.68 10 10 0 013.44 1.87 7.51 7.51 0 012.08 2.81 9 9 0 01.69 3.54v9.55c0 1.67 0 3.11.05 4.32s.07 2.27.1 3.22h-5.55zm-.49-8.11c-.59-.14-1.26-.27-2-.38a16.11 16.11 0 00-2.31-.17 6.19 6.19 0 00-3.56.9 3.1 3.1 0 00-1.31 2.76 3.54 3.54 0 00.3 1.51 3 3 0 00.8 1.06 3.25 3.25 0 001.18.62 4.46 4.46 0 001.43.21 6.34 6.34 0 001.76-.24 8.75 8.75 0 001.53-.63 8.3 8.3 0 001.25-.85 8.42 8.42 0 001-.92zM412.78 25.73a18.11 18.11 0 01.9-5.93 12.87 12.87 0 012.48-4.37 10 10 0 013.59-2.64 10.38 10.38 0 014.2-.88 9.93 9.93 0 011.92.18 10.27 10.27 0 011.71.5 11.5 11.5 0 011.5.71 14.49 14.49 0 011.3.81v-1.48V0h6.14v34.68c0 1.21.16 2.25.16 3.25h-5.55l-.26-2.7h-.1a10 10 0 01-1.31 1.28 8.89 8.89 0 01-1.69 1.09 9.44 9.44 0 01-2 .72 10.64 10.64 0 01-2.4.26 10.75 10.75 0 01-3.93-.73 9.35 9.35 0 01-3.36-2.27 11 11 0 01-2.39-4 17 17 0 01-.91-5.85zm12.1 7.87a6.13 6.13 0 001.73-.23 8.3 8.3 0 001.54-.63 7.72 7.72 0 001.28-.86 9.36 9.36 0 001-.92V18.93a10.88 10.88 0 00-2.44-1.48 7.1 7.1 0 00-2.85-.59 5.79 5.79 0 00-2 .4 5 5 0 00-1.92 1.33 7.43 7.43 0 00-1.45 2.62 13.18 13.18 0 00-.58 4.27 10.44 10.44 0 001.46 6 4.92 4.92 0 004.23 2.12zM455.79 33.55a20.55 20.55 0 003.74-.36 30.32 30.32 0 003.94-1.05v5a18.86 18.86 0 01-3.66 1 27.43 27.43 0 01-5.11.47 18.14 18.14 0 01-5.06-.69 10.94 10.94 0 01-4.19-2.24 10.79 10.79 0 01-2.84-4 15.19 15.19 0 01-1-6 16.94 16.94 0 011-6.05 12.27 12.27 0 012.64-4.29 11 11 0 013.8-2.55 11.78 11.78 0 014.42-.85 12.68 12.68 0 014.39.73 9 9 0 013.48 2.3 11 11 0 012.28 4.05 18.87 18.87 0 01.81 5.85c0 .87 0 1.61-.07 2.22h-16.52a7.6 7.6 0 00.77 3 5.67 5.67 0 001.7 2 7 7 0 002.45 1.13 12.6 12.6 0 003.03.33zm-2.46-16.8a4.7 4.7 0 00-2.07.43 4.81 4.81 0 00-1.57 1.18 5.86 5.86 0 00-1 1.74 8.55 8.55 0 00-.52 2.12h9.88a7.29 7.29 0 00-.3-2.12 5.28 5.28 0 00-.88-1.74 4.27 4.27 0 00-1.45-1.18 4.51 4.51 0 00-2.09-.43zM197.37 77.53H184.2l-3.42 10h-6.82l13.87-39.19h5.85l13.88 39.19h-6.77zm-6.64-19.77q-1.83 6.15-3.27 10.28l-1.19 3.49h9l-1.19-3.49q-1.43-4.17-3.27-10.28zM217.03 63.09h.1a10.24 10.24 0 011.39-1.73 9.7 9.7 0 011.9-1.49 10.57 10.57 0 012.37-1 9.15 9.15 0 012.75-.4 10.31 10.31 0 012.68.35 7.77 7.77 0 012.37 1.1 7.6 7.6 0 011.89 1.94 9.39 9.39 0 011.29 2.82 10.72 10.72 0 01.36 2c.06.71.09 1.54.09 2.47v18.43h-6.19v-17.4c0-.76 0-1.42-.08-2a6.21 6.21 0 00-.29-1.44 3.51 3.51 0 00-1.42-1.93 4.37 4.37 0 00-2.32-.59 6.91 6.91 0 00-3.46.95 9.48 9.48 0 00-2.94 2.77v19.54h-6.19V59.14h5.12zM246.68 56.68c0 1.46 0 2.67-.06 3.61s-.12 1.8-.22 2.56h.1a12 12 0 011.34-1.63 9.58 9.58 0 011.76-1.43 9.32 9.32 0 012.16-1 9.09 9.09 0 012.68-.38 10.93 10.93 0 012.44.28 8.26 8.26 0 012.22.86 7.57 7.57 0 011.88 1.53 8.22 8.22 0 011.43 2.22 10.78 10.78 0 01.73 2.52 20.81 20.81 0 01.24 3.43V87.5h-6.2V70.21a18.19 18.19 0 00-.1-2.16 5.3 5.3 0 00-.37-1.45 3.44 3.44 0 00-1.56-1.81 5 5 0 00-2.33-.53 6.42 6.42 0 00-3.33 1 9.73 9.73 0 00-2.81 2.75v19.54h-6.19V45.1h6.19zM282.47 82.66a18.55 18.55 0 003.76-.41 27.13 27.13 0 004-1.18v5.54a17.11 17.11 0 01-3.69 1.11 24.75 24.75 0 01-5.14.53 16.51 16.51 0 01-5.11-.78 10.7 10.7 0 01-4.22-2.5 12.09 12.09 0 01-2.86-4.48 18.57 18.57 0 01-1.06-6.68 20.71 20.71 0 011-6.77 14 14 0 012.66-4.8 10.91 10.91 0 018.28-3.81 11.84 11.84 0 014.43.82 9 9 0 013.5 2.58 12.53 12.53 0 012.3 4.53 23 23 0 01.82 6.54c0 1 0 1.81-.08 2.49h-16.61a9.33 9.33 0 00.79 3.36 6.2 6.2 0 001.71 2.25 6.57 6.57 0 002.47 1.26 11.42 11.42 0 003.05.4zm-2.48-18.81a4.44 4.44 0 00-2.09.48 5.26 5.26 0 00-1.58 1.32 6.77 6.77 0 00-1.06 1.95 10.5 10.5 0 00-.52 2.37h10a9.05 9.05 0 00-.3-2.37 6.21 6.21 0 00-.88-1.95 4.53 4.53 0 00-1.47-1.32 4.17 4.17 0 00-2.1-.48zM328.89 70.24c0-.61 0-1.18-.06-1.7a8.29 8.29 0 00-.18-1.38 4 4 0 00-1.12-2.08 3.38 3.38 0 00-2.35-.82 6 6 0 00-1.68.26 9.08 9.08 0 00-1.71.75 9.74 9.74 0 00-1.62 1.17 10.18 10.18 0 00-1.39 1.54v19.54h-6.19V70.24c0-.61 0-1.18-.06-1.7a8.29 8.29 0 00-.18-1.38 4 4 0 00-1.11-2.08 3.37 3.37 0 00-2.36-.82 6 6 0 00-1.68.26 9.08 9.08 0 00-1.71.75 9.74 9.74 0 00-1.62 1.17 10.81 10.81 0 00-1.4 1.54v19.54h-6.19V59.14h5.12l.58 4h.1a10.24 10.24 0 011.39-1.73 9.94 9.94 0 011.89-1.49 10.26 10.26 0 012.33-1 8.67 8.67 0 012.67-.4 8.34 8.34 0 014.51 1.25 7.7 7.7 0 013 3.88h.11a13.49 13.49 0 011.63-2.08 10 10 0 012-1.61 10.26 10.26 0 012.36-1.06 9.54 9.54 0 012.71-.38 7.7 7.7 0 017.39 4.69 9 9 0 01.45 1.21 11.09 11.09 0 01.29 1.48c.08.55.14 1.16.17 1.82s.06 1.43.06 2.28v17.61h-6.19zM365.26 72.84a21.4 21.4 0 01-1 6.8 14.91 14.91 0 01-2.6 4.86 10.49 10.49 0 01-3.62 2.83 9.7 9.7 0 01-4 .92 7.78 7.78 0 01-2.59-.4 8.54 8.54 0 01-2-1 8.21 8.21 0 01-1.45-1.23 11.79 11.79 0 01-.93-1.14h-.1l-.6 3h-5.12q0-1.26.09-3.12V45.1h6.19v15.81h.05c.4-.31.84-.61 1.31-.91a11.68 11.68 0 011.54-.79 9.94 9.94 0 011.8-.55 9.6 9.6 0 012-.21 10.18 10.18 0 014.11.87 9.88 9.88 0 013.54 2.61 13.27 13.27 0 012.47 4.54 20.61 20.61 0 01.91 6.37zm-6.4.35a15.85 15.85 0 00-.58-4.58 7.44 7.44 0 00-1.5-2.93 4.83 4.83 0 00-1.93-1.36 6.15 6.15 0 00-2-.35 6.87 6.87 0 00-2.77.61 9.72 9.72 0 00-2.56 1.64v13.59a9.73 9.73 0 00.9 1 8 8 0 001.2.93 7.23 7.23 0 001.45.71 5.45 5.45 0 004.33-.41 5.76 5.76 0 001.91-2 9.94 9.94 0 001.16-3 17.92 17.92 0 00.39-3.85zM369.98 45.1h6.5v7.53h-6.5zm.16 14h6.19v28.38h-6.19zM413.06 77q1.14-4.62 2.84-9.93l6-18.74h9v39.19h-6.4V67.66q0-4.37.31-10.14h-.24c-.29 1.12-.64 2.37-1 3.75s-.82 2.76-1.25 4.1l-7.24 22.15h-4.13l-7.27-22.15c-.44-1.34-.86-2.71-1.26-4.1s-.75-2.63-1-3.75h-.24q.32 5.43.31 10.11v19.89h-6.4V48.33h8.94l6 18.65q1.51 4.67 2.85 10zM462.14 73.34a19.47 19.47 0 01-.89 6.09 13.79 13.79 0 01-2.54 4.72 11.37 11.37 0 01-4 3 12.6 12.6 0 01-5.25 1.07 12.91 12.91 0 01-5.35-1.07 11.19 11.19 0 01-4-3 13.93 13.93 0 01-2.52-4.72 20.09 20.09 0 01-.87-6.09 19.52 19.52 0 01.89-6.09 13.79 13.79 0 012.54-4.72 11.37 11.37 0 014-3 12.6 12.6 0 015.25-1.07 12.91 12.91 0 015.35 1.07 11.19 11.19 0 014 3 13.93 13.93 0 012.52 4.72 20.14 20.14 0 01.87 6.09zm-6.4 0a15.36 15.36 0 00-.47-4 9.13 9.13 0 00-1.3-2.9 5.46 5.46 0 00-2-1.76 5.64 5.64 0 00-2.56-.59 5.4 5.4 0 00-4.52 2.35 9.13 9.13 0 00-1.3 2.9 17.09 17.09 0 000 8 8.49 8.49 0 001.32 2.89 5.7 5.7 0 002 1.76 5.68 5.68 0 005.08 0 5.73 5.73 0 002-1.76 8.87 8.87 0 001.3-2.89 15.3 15.3 0 00.45-4zM482.08 64.64h-.53a12.39 12.39 0 00-5 1 7.14 7.14 0 00-3.33 2.92v19h-6.19V59.14h5.12l.57 4h.11a8.56 8.56 0 013-3.41 8.28 8.28 0 014.61-1.25 9.57 9.57 0 011.62.12zM496.68 88.25a12.44 12.44 0 01-6.32-1.45 9.63 9.63 0 01-3.78-3.87 11.54 11.54 0 01-1-2.9 17.26 17.26 0 01-.33-3.52V59.14h6.19v16.6a13.67 13.67 0 00.19 2.48 6.69 6.69 0 00.55 1.8 4.14 4.14 0 001.77 1.92 5.63 5.63 0 002.74.63 5.55 5.55 0 002.87-.71 4.3 4.3 0 001.78-2.13 9.89 9.89 0 00.6-3.84V59.14h6.2v17.33a14.19 14.19 0 01-1.07 5.83 9.91 9.91 0 01-1.56 2.45 8.9 8.9 0 01-2.25 1.87 11.13 11.13 0 01-2.92 1.21 14.64 14.64 0 01-3.66.42zM546.68 70.24v-1.7a11.13 11.13 0 00-.18-1.38 4 4 0 00-1.13-2.08 3.36 3.36 0 00-2.35-.82 5.91 5.91 0 00-1.67.26 8.81 8.81 0 00-1.71.75 9 9 0 00-1.62 1.17 10.81 10.81 0 00-1.4 1.54v19.54h-6.19V70.24c0-.61 0-1.18-.05-1.7a11.13 11.13 0 00-.18-1.38 4.15 4.15 0 00-1.11-2.08 3.38 3.38 0 00-2.37-.82 5.86 5.86 0 00-1.67.26 8.55 8.55 0 00-1.71.75 9 9 0 00-1.62 1.17 10.25 10.25 0 00-1.4 1.54v19.54h-6.19V59.14h5.12l.57 4h.11a10.67 10.67 0 011.38-1.73 10 10 0 011.9-1.49 10.18 10.18 0 012.32-1 8.78 8.78 0 012.68-.4 8.39 8.39 0 014.51 1.25 7.75 7.75 0 013 3.88h.1a13.54 13.54 0 011.64-2.08 9.68 9.68 0 012-1.61 10.07 10.07 0 012.36-1.06 9.47 9.47 0 012.7-.38 7.73 7.73 0 017.4 4.69 7.8 7.8 0 01.44 1.21 12.85 12.85 0 01.3 1.48c.08.55.14 1.16.17 1.82s.05 1.43.05 2.28v17.61h-6.2zM583.06 72.84a21.4 21.4 0 01-1 6.8 14.72 14.72 0 01-2.6 4.86 10.4 10.4 0 01-3.62 2.83 9.69 9.69 0 01-4 .92 7.78 7.78 0 01-2.59-.4 8.18 8.18 0 01-2-1 7.87 7.87 0 01-1.45-1.23 11.79 11.79 0 01-.93-1.14h-.1l-.6 3h-5.12q0-1.26.09-3.12V45.1h6.19v15.81h.06c.4-.31.83-.61 1.3-.91a12.34 12.34 0 011.54-.79 9.81 9.81 0 011.81-.55 9.5 9.5 0 012-.21 10.19 10.19 0 014.12.87 9.85 9.85 0 013.52 2.61 12.94 12.94 0 012.47 4.54 20.32 20.32 0 01.91 6.37zm-6.4.35a16.23 16.23 0 00-.57-4.58 7.44 7.44 0 00-1.5-2.93 4.86 4.86 0 00-1.94-1.36 6.09 6.09 0 00-2-.35 6.87 6.87 0 00-2.77.61 9.56 9.56 0 00-2.56 1.64v13.59a8.68 8.68 0 00.9 1 8 8 0 001.2.93 7 7 0 001.45.71 5.42 5.42 0 004.32-.41 5.67 5.67 0 001.91-2 9.94 9.94 0 001.16-3 17.92 17.92 0 00.42-3.85zM587.79 45.1h6.5v7.53h-6.5zm.15 14h6.19v28.38h-6.19zM180.98 118.05v13.17h7.11v2.38h-9.9v-15.55zM199.9 129.64h-5.73l-1.49 4h-3l6-15.55h2.54l6 15.55h-2.84zm-2.89-7.84c-.53 1.62-1 3-1.42 4.07l-.52 1.39H199l-.52-1.39c-.41-1.1-.89-2.46-1.42-4.07zM212.04 133.93a8.75 8.75 0 01-2.14-.24 6.29 6.29 0 01-1.69-.68 4.81 4.81 0 01-1.23-1.1 5 5 0 01-.82-1.45 6.33 6.33 0 01-.36-1.44 13.54 13.54 0 01-.11-1.77v-9.16h2.79v8.84a6.88 6.88 0 00.38 2.58 3 3 0 001.26 1.5 4.08 4.08 0 002 .46 4 4 0 002-.46 3 3 0 001.26-1.5 6.86 6.86 0 00.3-2.58v-8.9h2.78v9.16a12 12 0 01-.11 1.77 6.9 6.9 0 01-.35 1.44 5.31 5.31 0 01-.83 1.45 4.63 4.63 0 01-1.26 1.1 6.3 6.3 0 01-1.71.68 8.92 8.92 0 01-2.16.3zM233.29 122.72a4.32 4.32 0 01-.88 2.76 5.13 5.13 0 01-2.72 1.68l4.52 6.39h-3.34l-4.14-6h-1.9v6h-2.79v-15.5h4.64a15.76 15.76 0 012.13.14 7.74 7.74 0 011.7.4 4.37 4.37 0 012.06 1.55 4.32 4.32 0 01.72 2.58zm-7.09 2.48a12.27 12.27 0 001.62-.09 4.88 4.88 0 001.12-.26 2.14 2.14 0 001.16-.89 2.5 2.5 0 00.33-1.29 2.33 2.33 0 00-.26-1.11 1.73 1.73 0 00-.87-.76 3.41 3.41 0 00-1-.28 12.25 12.25 0 00-1.49-.08h-2v4.76zM239.26 131.22h7.48v2.38h-10.26v-15.55h9.85v2.39h-7.07v4h6.07v2.38h-6.07zM258.68 129.64h-5.72l-1.49 4h-3l6-15.55h2.54l6 15.55h-3zm-2.88-7.84c-.53 1.62-1 3-1.42 4.07l-.52 1.39h3.93l-.52-1.39c-.42-1.1-.89-2.46-1.43-4.07zM269.74 133.6h-2.79v-13.16h-4.9v-2.39h12.63v2.39h-4.9zM279.54 131.22h7.47v2.38h-10.26v-15.55h9.85v2.39h-7.06v4h6.06v2.38h-6.06zM299.62 118.07h1v15.53h-1zM305.73 118.07l6.84 9.77 2.87 4.19h.07c-.11-1-.16-2.58-.16-4.81v-9.15h1v15.53h-.87l-6.86-9.88-2.84-4.11h-.05c.09 1 .14 2.79.14 5.45v8.54h-1v-15.53zM324.33 119.02h-5.24v-.95h11.5v.95h-5.26v14.58h-1zM333.34 118.07H342v.93h-7.66v6.18h7v.93h-7v6.56h8.1v.93h-9.1zM348.91 118.07a16 16 0 012.21.11q3.69.74 3.69 4a4.3 4.3 0 01-1.21 3.14 4.67 4.67 0 01-3.21 1.33l5.31 6.9h-1.23l-5.3-6.83h-2.59v6.83h-1v-15.48zm4.86 4.09a2.56 2.56 0 00-1.3-2.46 7.81 7.81 0 00-3.68-.7h-2.21v6.84h2.26a6.5 6.5 0 003.7-.86 3.2 3.2 0 001.23-2.82zM359.45 118.07l6.84 9.77 2.86 4.19h.07c-.11-1-.16-2.58-.16-4.81v-9.15h1v15.53h-.86l-6.86-9.88-2.84-4.11h-.05c.09 1 .14 2.79.14 5.45v8.54h-1v-15.53zM372.74 133.6l6.22-15.53h1l6.23 15.53h-1.1l-2.18-5.52h-6.88l-2.17 5.52zm9.78-6.45l-.58-1.5c-1.27-3.21-2.08-5.34-2.45-6.38-.31.89-.82 2.2-1.54 3.94-.22.54-.74 1.85-1.56 3.94zM390.68 119.02h-5.23v-.95h11.49v.95h-5.26v14.58h-1zM399.68 118.07h1v15.53h-1zM404.34 125.84a9.65 9.65 0 01.88-4.16 7 7 0 012.45-2.89 6.33 6.33 0 013.56-1 6.45 6.45 0 013.64 1 6.78 6.78 0 012.41 2.88 9.89 9.89 0 01.85 4.17 9.52 9.52 0 01-.88 4.13 6.91 6.91 0 01-2.44 2.88 6.22 6.22 0 01-3.52 1 6.53 6.53 0 01-3.68-1 6.69 6.69 0 01-2.42-2.87 9.83 9.83 0 01-.85-4.14zm12.71 0a8.79 8.79 0 00-.78-3.85 5.81 5.81 0 00-2.09-2.47 5.42 5.42 0 00-3-.84 5.35 5.35 0 00-2.93.84 5.85 5.85 0 00-2.11 2.47 9.92 9.92 0 000 7.71 5.79 5.79 0 002.12 2.44 5.54 5.54 0 003 .82 5.32 5.32 0 002.9-.82 5.71 5.71 0 002.08-2.44 8.77 8.77 0 00.81-3.86zM422.68 118.07l6.84 9.77 2.87 4.19h.06c-.1-1-.16-2.58-.16-4.81v-9.15h1v15.53h-.86l-6.86-9.88-2.89-4.11c.09 1 .14 2.79.14 5.45v8.54h-1v-15.53zM435.94 133.6l6.21-15.53h1l6.24 15.53h-1.11l-2.18-5.52h-6.88l-2.17 5.52zm9.77-6.45l-.58-1.5q-1.91-4.82-2.44-6.38c-.31.89-.82 2.2-1.53 3.94-.22.54-.75 1.85-1.57 3.94zM452.06 118.07h1v14.6h7.7v.93h-8.7zM468.29 128.06v-10h1v10.42a4.11 4.11 0 004.51 4.47 4.62 4.62 0 003.34-1.14 4.44 4.44 0 001.18-3.33v-10.41h1v10c0 3.89-1.84 5.83-5.54 5.83a5.31 5.31 0 01-4.12-1.5 6.25 6.25 0 01-1.37-4.34zM484.4 118.07l6.84 9.77 2.87 4.19h.07c-.11-1-.16-2.58-.16-4.81v-9.15h1v15.53h-.87l-6.86-9.88-2.84-4.11c.09 1 .14 2.79.14 5.45v8.54h-1v-15.53zM499.28 118.07h1v15.53h-1zM504.08 118.07l2.94 8.29q1.54 4.36 2.12 6.19c.37-1.24.94-2.94 1.7-5.07l3.3-9.41h1l-5.46 15.53h-1.1l-5.52-15.53zM518 118.07h8.68v.93h-7.66v6.18h7v.93h-7v6.56h8.1v.93h-9.1zM533.57 118.07a16.05 16.05 0 012.22.11q3.69.74 3.69 4a4.31 4.31 0 01-1.22 3.14 4.65 4.65 0 01-3.2 1.33l5.31 6.9h-1.23l-5.31-6.83h-2.59v6.83h-1v-15.48zm4.86 4.09a2.57 2.57 0 00-1.29-2.46 7.81 7.81 0 00-3.68-.7h-2.22v6.84h2.26a6.54 6.54 0 003.71-.86 3.2 3.2 0 001.22-2.82zM542.95 133.05v-1.12a6.9 6.9 0 001.82.67 8.59 8.59 0 002.09.33 5.56 5.56 0 003.18-.78 3 3 0 001.13-2.65 3 3 0 00-.38-1.56 2.8 2.8 0 00-1-1 11.39 11.39 0 00-2.36-.85 18.85 18.85 0 01-2.38-.76 3.77 3.77 0 01-1.51-1.18 3.4 3.4 0 01-.61-2.14 3.87 3.87 0 011.37-3.11 5.26 5.26 0 013.58-1.18 9.4 9.4 0 012.84.43 9.67 9.67 0 011 .43v1.12c-.46-.22-.86-.4-1.19-.53a6.52 6.52 0 00-1.19-.36 8.07 8.07 0 00-1.53-.16 4 4 0 00-2.91.93 3.29 3.29 0 00-.95 2.48 2.55 2.55 0 00.41 1.53 2.7 2.7 0 001.12.86 20.18 20.18 0 002.1.7 18.86 18.86 0 012.46.82 3.92 3.92 0 011.54 1.2 3.61 3.61 0 01.65 2.26 4 4 0 01-1.4 3.26 6.08 6.08 0 01-4 1.17 9.29 9.29 0 01-2.23-.29 7.31 7.31 0 01-1.65-.52zM555.55 118.07h1v15.53h-1zM564.52 119.02h-5.23v-.95h11.49v.95h-5.26v14.58h-1zM573.53 118.07h1v15.53h-1zM578.78 118.07h8.66v.93h-7.66v6.18h7v.93h-7v6.56h8.1v.93h-9.1zM590.79 133.05v-1.12a6.76 6.76 0 001.82.67 8.59 8.59 0 002.07.33 5.52 5.52 0 003.17-.78 3 3 0 001.14-2.65 2.86 2.86 0 00-.39-1.56 2.77 2.77 0 00-1-1 11.31 11.31 0 00-2.37-.85 18.63 18.63 0 01-2.37-.76 3.71 3.71 0 01-1.51-1.18 3.4 3.4 0 01-.62-2.14 3.9 3.9 0 011.37-3.11 5.28 5.28 0 013.59-1.18 9.45 9.45 0 012.84.43 10.71 10.71 0 011 .43v1.12c-.47-.22-.86-.4-1.19-.53a6.77 6.77 0 00-1.19-.36 8.07 8.07 0 00-1.53-.16 4 4 0 00-2.92.93 3.33 3.33 0 00-1 2.48 2.48 2.48 0 00.42 1.53 2.7 2.7 0 001.12.86 20.18 20.18 0 002.1.7 19.4 19.4 0 012.46.82 3.83 3.83 0 011.53 1.2 3.55 3.55 0 01.66 2.26 4 4 0 01-1.41 3.26 6 6 0 01-4 1.17 9.42 9.42 0 01-2.23-.29 7 7 0 01-1.56-.52zM602.37 123.29a5.61 5.61 0 01.71-2.83 5.15 5.15 0 011.94-2 5.57 5.57 0 015.48 0 5.23 5.23 0 012 2 5.88 5.88 0 010 5.64 5.29 5.29 0 01-2 2 5.43 5.43 0 01-2.74.71 5.16 5.16 0 01-3.85-1.57 5.35 5.35 0 01-1.54-3.95zm10 0a4.73 4.73 0 00-1.29-3.42 4.72 4.72 0 00-6.6 0 4.79 4.79 0 00-1.27 3.43 4.67 4.67 0 001.28 3.41 4.36 4.36 0 003.28 1.33 4.41 4.41 0 003.31-1.33 4.71 4.71 0 001.28-3.42zm-6.44-2.92h1.82c1.35 0 2 .57 2 1.72a1.52 1.52 0 01-.38 1.09 1.66 1.66 0 01-1 .5l1.58 2.36h-.9l-1.52-2.26h-.85v2.26h-.75zm1.56 2.76a1.86 1.86 0 001.11-.28.92.92 0 00.38-.76 1 1 0 00-.29-.7 1.06 1.06 0 00-.8-.3h-1.21v2zM144.68.93h2v133h-2z"/><path d="M38.81 97.16c-4 12.35-8 24.56-12 36.77H0l21.6-63.41h27.35l11.93 23.2L72.82 70.5h27.34l21.6 63.43H94.98l-12-36.76c-4.45 7.28-8.87 14.4-13.17 21.59a4.47 4.47 0 01-4.17 2.41h-9.28a4.5 4.5 0 01-4.17-2.41c-4.4-7.2-8.87-14.32-13.38-21.6z" fill="#00ab8d"/><path d="M73.18 66.52l-12.3-39-12.3 39h-25.9q4.75-14.76 9.49-29.47c3.24-10.07 6.51-20.12 9.73-30.2 1.26-3.94 4-6 8-6C57.6.79 65.31.78 73 1.02c3.27.09 5.56 2.12 6.57 5.24q9.72 30 19.36 60l.06.33z" fill="#00796a"/></svg>